<mxfile host="app.diagrams.net" agent="Mozilla/5.0 (Macintosh; Intel Mac OS X 10_15_7) AppleWebKit/605.1.15 (KHTML, like Gecko) Version/17.4.1 Safari/605.1.15" version="26.0.10">
  <diagram name="Page-1" id="ggt5qJyGn_re6qSjKRcF">
    <mxGraphModel dx="1158" dy="785" grid="1" gridSize="10" guides="1" tooltips="1" connect="1" arrows="1" fold="1" page="1" pageScale="1" pageWidth="827" pageHeight="1169" math="0" shadow="0">
      <root>
        <mxCell id="0" />
        <mxCell id="1" parent="0" />
        <mxCell id="oMCcY1NRKB2UJiugY0-L-1" value="" style="rounded=0;whiteSpace=wrap;html=1;fillColor=none;dashed=1;" parent="1" vertex="1">
          <mxGeometry x="40" y="160" width="140" height="530" as="geometry" />
        </mxCell>
        <mxCell id="oMCcY1NRKB2UJiugY0-L-2" value="Sources" style="rounded=0;whiteSpace=wrap;html=1;fillColor=default;fontSize=20;strokeColor=none;" parent="1" vertex="1">
          <mxGeometry x="60" y="140" width="100" height="40" as="geometry" />
        </mxCell>
        <mxCell id="oMCcY1NRKB2UJiugY0-L-3" value="" style="rounded=0;whiteSpace=wrap;html=1;fillColor=none;dashed=1;" parent="1" vertex="1">
          <mxGeometry x="220" y="160" width="595" height="530" as="geometry" />
        </mxCell>
        <mxCell id="oMCcY1NRKB2UJiugY0-L-4" value="" style="rounded=0;whiteSpace=wrap;html=1;fillColor=none;dashed=1;" parent="1" vertex="1">
          <mxGeometry x="840" y="160" width="200" height="530" as="geometry" />
        </mxCell>
        <mxCell id="oMCcY1NRKB2UJiugY0-L-5" value="Data Warehouse" style="rounded=0;whiteSpace=wrap;html=1;fillColor=default;fontSize=20;strokeColor=none;" parent="1" vertex="1">
          <mxGeometry x="430" y="140" width="160" height="40" as="geometry" />
        </mxCell>
        <mxCell id="oMCcY1NRKB2UJiugY0-L-6" value="Consume" style="rounded=0;whiteSpace=wrap;html=1;fillColor=default;fontSize=20;strokeColor=none;" parent="1" vertex="1">
          <mxGeometry x="890" y="140" width="100" height="40" as="geometry" />
        </mxCell>
        <mxCell id="oMCcY1NRKB2UJiugY0-L-7" value="Bronze Layer" style="rounded=0;whiteSpace=wrap;html=1;fillColor=#ffe6cc;strokeColor=#d79b00;fontSize=16;" parent="1" vertex="1">
          <mxGeometry x="240" y="200" width="170" height="20" as="geometry" />
        </mxCell>
        <mxCell id="oMCcY1NRKB2UJiugY0-L-8" value="Silver Layer" style="rounded=0;whiteSpace=wrap;html=1;fillColor=#f5f5f5;strokeColor=#666666;fontColor=#333333;fontSize=16;" parent="1" vertex="1">
          <mxGeometry x="440" y="200" width="170" height="20" as="geometry" />
        </mxCell>
        <mxCell id="oMCcY1NRKB2UJiugY0-L-9" value="Gold Layer" style="rounded=0;whiteSpace=wrap;html=1;fillColor=#fff2cc;strokeColor=#d6b656;fontSize=16;" parent="1" vertex="1">
          <mxGeometry x="630" y="200" width="170" height="20" as="geometry" />
        </mxCell>
        <mxCell id="oMCcY1NRKB2UJiugY0-L-10" value="" style="rounded=0;whiteSpace=wrap;html=1;fillColor=none;strokeColor=#d79b00;" parent="1" vertex="1">
          <mxGeometry x="240" y="240" width="170" height="430" as="geometry" />
        </mxCell>
        <mxCell id="oMCcY1NRKB2UJiugY0-L-11" value="" style="rounded=0;whiteSpace=wrap;html=1;fillColor=none;strokeColor=default;fontColor=#333333;" parent="1" vertex="1">
          <mxGeometry x="440" y="240" width="170" height="430" as="geometry" />
        </mxCell>
        <mxCell id="oMCcY1NRKB2UJiugY0-L-12" value="" style="rounded=0;whiteSpace=wrap;html=1;fillColor=none;strokeColor=#d6b656;" parent="1" vertex="1">
          <mxGeometry x="630" y="240" width="170" height="430" as="geometry" />
        </mxCell>
        <mxCell id="oMCcY1NRKB2UJiugY0-L-13" value="" style="image;aspect=fixed;html=1;points=[];align=center;fontSize=12;image=img/lib/azure2/general/Folder_Blank.svg;" parent="1" vertex="1">
          <mxGeometry x="80" y="283.25" width="65" height="52.75" as="geometry" />
        </mxCell>
        <mxCell id="oMCcY1NRKB2UJiugY0-L-14" value="" style="verticalLabelPosition=bottom;html=1;verticalAlign=top;align=center;strokeColor=none;fillColor=#00BEF2;shape=mxgraph.azure.file_2;pointerEvents=1;" parent="1" vertex="1">
          <mxGeometry x="120" y="310" width="30" height="30" as="geometry" />
        </mxCell>
        <mxCell id="oMCcY1NRKB2UJiugY0-L-15" value="ERP" style="image;aspect=fixed;html=1;points=[];align=center;fontSize=12;image=img/lib/azure2/general/Folder_Blank.svg;fontStyle=1" parent="1" vertex="1">
          <mxGeometry x="80" y="380" width="65" height="52.75" as="geometry" />
        </mxCell>
        <mxCell id="oMCcY1NRKB2UJiugY0-L-16" value="" style="verticalLabelPosition=bottom;html=1;verticalAlign=top;align=center;strokeColor=none;fillColor=#00BEF2;shape=mxgraph.azure.file_2;pointerEvents=1;" parent="1" vertex="1">
          <mxGeometry x="120" y="406.75" width="30" height="30" as="geometry" />
        </mxCell>
        <mxCell id="oMCcY1NRKB2UJiugY0-L-18" value="CRM" style="text;html=1;align=center;verticalAlign=middle;resizable=0;points=[];autosize=1;strokeColor=none;fillColor=none;fontStyle=1" parent="1" vertex="1">
          <mxGeometry x="85" y="332" width="50" height="30" as="geometry" />
        </mxCell>
        <mxCell id="oMCcY1NRKB2UJiugY0-L-20" value="" style="endArrow=none;html=1;rounded=0;" parent="1" edge="1">
          <mxGeometry width="50" height="50" relative="1" as="geometry">
            <mxPoint x="167.5" y="480" as="sourcePoint" />
            <mxPoint x="57.5" y="480" as="targetPoint" />
          </mxGeometry>
        </mxCell>
        <mxCell id="oMCcY1NRKB2UJiugY0-L-21" value="Object Type: CSV files&lt;div&gt;&lt;div style=&quot;&quot;&gt;&lt;br&gt;&lt;/div&gt;&lt;div&gt;Interface: Files in Folder&lt;/div&gt;&lt;/div&gt;" style="text;html=1;align=left;verticalAlign=middle;whiteSpace=wrap;rounded=0;fontSize=10;" parent="1" vertex="1">
          <mxGeometry x="52.5" y="490" width="120" height="50" as="geometry" />
        </mxCell>
        <mxCell id="oMCcY1NRKB2UJiugY0-L-22" value="" style="shape=flexArrow;endArrow=classic;html=1;rounded=0;entryX=-0.021;entryY=0.472;entryDx=0;entryDy=0;entryPerimeter=0;fillColor=#dae8fc;strokeColor=#6c8ebf;" parent="1" edge="1">
          <mxGeometry width="50" height="50" relative="1" as="geometry">
            <mxPoint x="172.5" y="362.4" as="sourcePoint" />
            <mxPoint x="239.98000000000002" y="361.9999999999999" as="targetPoint" />
          </mxGeometry>
        </mxCell>
        <mxCell id="oMCcY1NRKB2UJiugY0-L-23" value="Raw Data" style="html=1;verticalLabelPosition=bottom;align=center;labelBackgroundColor=#ffffff;verticalAlign=top;strokeWidth=2;strokeColor=#d79b00;shadow=0;dashed=0;shape=mxgraph.ios7.icons.data;fillColor=#ffe6cc;fontSize=10;" parent="1" vertex="1">
          <mxGeometry x="304" y="262" width="42" height="48" as="geometry" />
        </mxCell>
        <mxCell id="oMCcY1NRKB2UJiugY0-L-24" value="Cleaned&lt;div&gt;Standardised Data&lt;/div&gt;" style="html=1;verticalLabelPosition=bottom;align=center;labelBackgroundColor=#ffffff;verticalAlign=top;strokeWidth=2;strokeColor=#666666;shadow=0;dashed=0;shape=mxgraph.ios7.icons.data;fillColor=#f5f5f5;fontColor=#333333;fontSize=10;" parent="1" vertex="1">
          <mxGeometry x="504" y="270" width="42" height="48" as="geometry" />
        </mxCell>
        <mxCell id="oMCcY1NRKB2UJiugY0-L-25" value="&lt;font style=&quot;font-size: 10px;&quot;&gt;Business-Ready&lt;/font&gt;&lt;div&gt;&lt;font style=&quot;font-size: 10px;&quot;&gt;Data&lt;/font&gt;&lt;/div&gt;" style="html=1;verticalLabelPosition=bottom;align=center;labelBackgroundColor=#ffffff;verticalAlign=top;strokeWidth=2;strokeColor=#d6b656;shadow=0;dashed=0;shape=mxgraph.ios7.icons.data;fillColor=#fff2cc;" parent="1" vertex="1">
          <mxGeometry x="690" y="270" width="42" height="48" as="geometry" />
        </mxCell>
        <mxCell id="oMCcY1NRKB2UJiugY0-L-26" value="" style="shape=flexArrow;endArrow=classic;html=1;rounded=0;fillColor=#dae8fc;strokeColor=#6c8ebf;" parent="1" edge="1">
          <mxGeometry width="50" height="50" relative="1" as="geometry">
            <mxPoint x="400" y="362" as="sourcePoint" />
            <mxPoint x="440" y="362" as="targetPoint" />
          </mxGeometry>
        </mxCell>
        <mxCell id="oMCcY1NRKB2UJiugY0-L-27" value="" style="shape=flexArrow;endArrow=classic;html=1;rounded=0;fillColor=#dae8fc;strokeColor=#6c8ebf;" parent="1" edge="1">
          <mxGeometry width="50" height="50" relative="1" as="geometry">
            <mxPoint x="597" y="362" as="sourcePoint" />
            <mxPoint x="637" y="362" as="targetPoint" />
          </mxGeometry>
        </mxCell>
        <mxCell id="oMCcY1NRKB2UJiugY0-L-28" value="" style="shape=flexArrow;endArrow=classic;html=1;rounded=0;entryX=-0.021;entryY=0.472;entryDx=0;entryDy=0;entryPerimeter=0;fillColor=#dae8fc;strokeColor=#6c8ebf;" parent="1" edge="1">
          <mxGeometry width="50" height="50" relative="1" as="geometry">
            <mxPoint x="810" y="361" as="sourcePoint" />
            <mxPoint x="877" y="361" as="targetPoint" />
          </mxGeometry>
        </mxCell>
        <mxCell id="oMCcY1NRKB2UJiugY0-L-29" value="" style="endArrow=none;html=1;rounded=0;fillColor=#ffe6cc;strokeColor=#d79b00;" parent="1" edge="1">
          <mxGeometry width="50" height="50" relative="1" as="geometry">
            <mxPoint x="375" y="362.34" as="sourcePoint" />
            <mxPoint x="275" y="361.99999999999994" as="targetPoint" />
          </mxGeometry>
        </mxCell>
        <mxCell id="oMCcY1NRKB2UJiugY0-L-30" value="" style="endArrow=none;html=1;rounded=0;fillColor=#f5f5f5;strokeColor=#666666;" parent="1" edge="1">
          <mxGeometry width="50" height="50" relative="1" as="geometry">
            <mxPoint x="575" y="362.34" as="sourcePoint" />
            <mxPoint x="475" y="361.99999999999994" as="targetPoint" />
          </mxGeometry>
        </mxCell>
        <mxCell id="oMCcY1NRKB2UJiugY0-L-31" value="" style="endArrow=none;html=1;rounded=0;fillColor=#fff2cc;strokeColor=#d6b656;" parent="1" edge="1">
          <mxGeometry width="50" height="50" relative="1" as="geometry">
            <mxPoint x="765" y="362.34" as="sourcePoint" />
            <mxPoint x="665" y="361.99999999999994" as="targetPoint" />
          </mxGeometry>
        </mxCell>
        <mxCell id="oMCcY1NRKB2UJiugY0-L-32" value="&lt;font style=&quot;font-size: 12px;&quot;&gt;Object Type: Tables&lt;/font&gt;&lt;div&gt;&lt;font style=&quot;font-size: 12px;&quot;&gt;&lt;br&gt;&lt;/font&gt;&lt;div&gt;&lt;font style=&quot;font-size: 12px;&quot;&gt;Load:&amp;nbsp;&lt;/font&gt;&lt;/div&gt;&lt;div&gt;&lt;ul&gt;&lt;li&gt;&lt;font style=&quot;font-size: 12px;&quot;&gt;Batch Processing&lt;/font&gt;&lt;/li&gt;&lt;li&gt;&lt;font style=&quot;font-size: 12px;&quot;&gt;Full load&lt;/font&gt;&lt;/li&gt;&lt;li&gt;&lt;font style=&quot;font-size: 12px;&quot;&gt;Truncate &amp;amp; Insert&lt;/font&gt;&lt;/li&gt;&lt;/ul&gt;&lt;div&gt;&lt;font style=&quot;font-size: 12px;&quot;&gt;No Transformations&lt;/font&gt;&lt;/div&gt;&lt;/div&gt;&lt;div&gt;&lt;font style=&quot;font-size: 12px;&quot;&gt;Data Model: None&lt;/font&gt;&lt;/div&gt;&lt;/div&gt;" style="text;html=1;align=left;verticalAlign=top;whiteSpace=wrap;rounded=0;fontSize=10;" parent="1" vertex="1">
          <mxGeometry x="250" y="370" width="155" height="270" as="geometry" />
        </mxCell>
        <mxCell id="oMCcY1NRKB2UJiugY0-L-33" value="Object Type: Tables&lt;div&gt;&lt;br&gt;&lt;div&gt;Load:&amp;nbsp;&lt;/div&gt;&lt;div&gt;&lt;ul&gt;&lt;li&gt;Batch Processing&lt;/li&gt;&lt;li&gt;Full load&lt;/li&gt;&lt;li&gt;Truncate &amp;amp; Insert&lt;/li&gt;&lt;/ul&gt;&lt;div&gt;Transformations:&lt;/div&gt;&lt;/div&gt;&lt;div&gt;&lt;ul&gt;&lt;li&gt;Cleansing&lt;/li&gt;&lt;li&gt;Standardization&lt;/li&gt;&lt;li&gt;Normalization&lt;/li&gt;&lt;li&gt;Derived Columns&lt;/li&gt;&lt;li&gt;Enrichment&lt;/li&gt;&lt;/ul&gt;&lt;/div&gt;&lt;div&gt;Data Model: None&lt;/div&gt;&lt;/div&gt;" style="text;html=1;align=left;verticalAlign=top;whiteSpace=wrap;rounded=0;fontSize=12;" parent="1" vertex="1">
          <mxGeometry x="450" y="370" width="150" height="270" as="geometry" />
        </mxCell>
        <mxCell id="oMCcY1NRKB2UJiugY0-L-35" value="Object Type: Tables&lt;div&gt;&lt;br&gt;&lt;div&gt;No Load:&lt;/div&gt;&lt;div&gt;&lt;br&gt;&lt;/div&gt;&lt;div&gt;Transformations:&lt;/div&gt;&lt;div&gt;&lt;ul&gt;&lt;li&gt;Data Integrations&lt;/li&gt;&lt;li&gt;Aggregations&lt;/li&gt;&lt;li&gt;Business Logics&lt;/li&gt;&lt;/ul&gt;&lt;/div&gt;&lt;div&gt;Data Model:&lt;/div&gt;&lt;/div&gt;&lt;div&gt;&lt;ul&gt;&lt;li&gt;Star Schema&lt;/li&gt;&lt;li&gt;Flat table&lt;/li&gt;&lt;li&gt;Aggregated Table&lt;/li&gt;&lt;/ul&gt;&lt;/div&gt;" style="text;html=1;align=left;verticalAlign=top;whiteSpace=wrap;rounded=0;fontSize=12;" parent="1" vertex="1">
          <mxGeometry x="636" y="370" width="150" height="270" as="geometry" />
        </mxCell>
        <mxCell id="oMCcY1NRKB2UJiugY0-L-36" value="BI &amp;amp; Reporting" style="shape=image;html=1;verticalAlign=top;verticalLabelPosition=bottom;labelBackgroundColor=#ffffff;imageAspect=0;aspect=fixed;image=https://cdn0.iconfinder.com/data/icons/business-startup-10/50/54-128.png" parent="1" vertex="1">
          <mxGeometry x="900" y="220" width="80" height="80" as="geometry" />
        </mxCell>
        <mxCell id="oMCcY1NRKB2UJiugY0-L-37" value="Ad-Hoc SQL Query" style="editableCssRules=.*;html=1;shape=image;verticalLabelPosition=bottom;labelBackgroundColor=#ffffff;verticalAlign=top;aspect=fixed;imageAspect=0;image=data:image/svg+xml,PHN2ZyB4bWxucz0iaHR0cDovL3d3dy53My5vcmcvMjAwMC9zdmciIHhtbG5zOnY9Imh0dHBzOi8vdmVjdGEuaW8vbmFubyIgd2lkdGg9IjIwLjAwMTA0NTIyNzA1MDc4IiBoZWlnaHQ9IjIwLjAwMTA0NTIyNzA1MDc4IiBmaWxsLXJ1bGU9ImV2ZW5vZGQiIHZpZXdCb3g9IjAgMCAyMC4wMDEwNDUyMjcwNTA3OCAyMC4wMDEwNDUyMjcwNTA3OCI+JiN4YTsJPHN0eWxlIHR5cGU9InRleHQvY3NzIj4mI3hhOwkuc3Qwe2ZpbGw6I2FlY2JmYTt9JiN4YTsJLnN0MXtmaWxsOiM2NjlkZjY7fSYjeGE7CS5zdDJ7ZmlsbDojNDI4NWY0O30mI3hhOwk8L3N0eWxlPiYjeGE7CTxwYXRoIGNsYXNzPSJzdDAiIGQ9Ik00LjczIDguODN2Mi42M2E0LjkxIDQuOTEgMCAwIDAgMS43MSAxLjc0VjguODN6Ii8+JiN4YTsJPHBhdGggY2xhc3M9InN0MSIgZD0iTTcuODkgNi40MXY3LjUzQTcuNjIgNy42MiAwIDAgMCA5IDE0YTggOCAwIDAgMCAxIDBWNi40MXoiLz4mI3hhOwk8cGF0aCBjbGFzcz0ic3QwIiBkPSJNMTEuNjQgOS44NnYzLjI5YTUgNSAwIDAgMCAxLjctMS44MlY5Ljg2eiIvPiYjeGE7CTxwYXRoIGNsYXNzPSJzdDIiIGQ9Ik0xNS43NCAxNC4zMmwtMS40MiAxLjQyYS40Mi40MiAwIDAgMCAwIC42bDMuNTQgMy41NGEuNDIuNDIgMCAwIDAgLjU5IDBsMS40My0xLjQzYS40Mi40MiAwIDAgMCAwLS41OWwtMy41NC0zLjU0YS40Mi40MiAwIDAgMC0uNiAwIi8+JiN4YTsJPHBhdGggY2xhc3M9InN0MSIgZD0iTTkgMGE5IDkgMCAxIDAgMCAxOEE5IDkgMCAxIDAgOSAwbTAgMTUuNjlhNi42OCA2LjY4IDAgMCAxIC4wMDctMTMuMzYgNi42OCA2LjY4IDAgMCAxIDQuNzI3IDExLjQwM0E2LjY4IDYuNjggMCAwIDEgOSAxNS42OSIvPiYjeGE7PC9zdmc+;" parent="1" vertex="1">
          <mxGeometry x="905" y="370" width="70" height="70" as="geometry" />
        </mxCell>
        <mxCell id="oMCcY1NRKB2UJiugY0-L-38" value="&lt;div&gt;&lt;br&gt;&lt;/div&gt;&lt;div&gt;&lt;br&gt;&lt;/div&gt;&lt;div&gt;&lt;br&gt;&lt;/div&gt;&lt;div&gt;&lt;br&gt;&lt;/div&gt;&lt;div&gt;&lt;br&gt;&lt;/div&gt;&lt;div&gt;&lt;br&gt;&lt;/div&gt;&lt;div&gt;&lt;br&gt;&lt;/div&gt;&lt;div&gt;Machine Learning&lt;/div&gt;" style="points=[];aspect=fixed;html=1;align=center;shadow=0;dashed=0;fillColor=#FF6A00;strokeColor=none;shape=mxgraph.alibaba_cloud.machine_learning;" parent="1" vertex="1">
          <mxGeometry x="905" y="515" width="69.58" height="70" as="geometry" />
        </mxCell>
        <mxCell id="oMCcY1NRKB2UJiugY0-L-39" value="&lt;font style=&quot;font-size: 30px;&quot;&gt;&lt;b&gt;High Level Architecture&lt;/b&gt;&lt;/font&gt;" style="text;html=1;align=center;verticalAlign=middle;whiteSpace=wrap;rounded=0;" parent="1" vertex="1">
          <mxGeometry x="40" y="40" width="350" height="80" as="geometry" />
        </mxCell>
        <mxCell id="oMCcY1NRKB2UJiugY0-L-40" value="" style="image;aspect=fixed;html=1;points=[];align=center;fontSize=12;image=img/lib/azure2/databases/Azure_SQL.svg;opacity=80;" parent="1" vertex="1">
          <mxGeometry x="224" y="122.5" width="80" height="57.5" as="geometry" />
        </mxCell>
      </root>
    </mxGraphModel>
  </diagram>
</mxfile>
